<svg width="200" height="66" viewBox="0 0 200 66" fill="none" xmlns="http://www.w3.org/2000/svg">
<path d="M24.2105 6.35297H0V66H24.2105V6.35297Z" fill="#4DC9FF"/>
<path d="M29.4258 49.7038C43.0709 49.7038 54.1324 38.5772 54.1324 24.8519C54.1324 11.1266 43.0709 0 29.4258 0C15.7807 0 4.71924 11.1266 4.71924 24.8519C4.71924 38.5772 15.7807 49.7038 29.4258 49.7038Z" fill="#FFDE51"/>
<path d="M69.7147 19.8127C72.2747 19.9708 74.1723 20.7727 75.4073 22.2184C76.6649 23.664 77.2937 25.6179 77.2937 28.08C77.2937 29.0965 77.0691 30.0452 76.62 30.9261C76.1933 31.7845 75.5982 32.5412 74.8347 33.1962C74.0937 33.8513 73.2179 34.3708 72.2073 34.7548C71.2193 35.1162 70.1751 35.2969 69.0747 35.2969H64.4263V41.2941H61.4621V23.3704C61.0803 23.3478 60.721 23.3139 60.3842 23.2687C60.0473 23.2235 59.7105 23.1332 59.3737 22.9976V20.1515C59.8228 20.2645 60.2831 20.3435 60.7547 20.3887C61.2487 20.4339 61.6979 20.4565 62.1021 20.4565C62.6859 20.4565 63.2473 20.4226 63.7863 20.3548C64.3477 20.2871 64.9091 20.2193 65.4705 20.1515C66.0544 20.0386 66.627 19.9595 67.1884 19.9144C67.7498 19.8466 68.3561 19.8127 69.0073 19.8127H69.7147ZM74.6326 27.9106C74.6326 27.3007 74.5765 26.7021 74.4642 26.1148C74.3519 25.5049 74.1161 24.9628 73.7568 24.4885C73.3975 24.0141 72.881 23.6188 72.2073 23.3026C71.5337 22.9864 70.6354 22.7944 69.5126 22.7266C68.8838 22.7266 68.1316 22.7492 67.2558 22.7944C66.4024 22.8395 65.4593 22.9864 64.4263 23.2348V32.3492H69.0747C69.8158 32.3492 70.5119 32.2475 71.1631 32.0442C71.8144 31.8409 72.387 31.5473 72.881 31.1633C73.3975 30.7567 73.8017 30.2824 74.0937 29.7402C74.408 29.1981 74.5877 28.5882 74.6326 27.9106ZM94.8231 39.5322C94.0372 40.0969 93.1165 40.6052 92.061 41.0569C91.0056 41.4861 89.8042 41.7007 88.4568 41.7007C87.3565 41.7007 86.3347 41.5426 85.3916 41.2264C84.4709 40.8875 83.6624 40.4132 82.9663 39.8033C82.2926 39.1934 81.7424 38.4367 81.3158 37.5332C80.9116 36.6296 80.687 35.6019 80.6421 34.4499V34.2805C80.2828 34.3256 79.9123 34.3595 79.5305 34.3821C79.1712 34.3821 78.8119 34.4499 78.4526 34.5854V31.5021C78.8344 31.3892 79.2049 31.3214 79.5642 31.2988C79.9235 31.2762 80.294 31.2424 80.6758 31.1972C80.7431 30.1129 80.9901 29.1191 81.4168 28.2155C81.8435 27.312 82.4161 26.5327 83.1347 25.8776C83.8533 25.2226 84.7066 24.7144 85.6947 24.3529C86.6828 23.9915 87.7719 23.8108 88.9621 23.8108C90.2421 23.8108 91.3986 24.0932 92.4316 24.6579C93.2175 25.1096 93.8687 25.7308 94.3852 26.5214C94.9017 27.312 95.16 28.2042 95.16 29.1981C95.16 30.2372 94.8119 31.2085 94.1158 32.112C93.3972 33.0607 92.5326 33.6819 91.5221 33.9755C90.534 34.2466 89.4561 34.3821 88.2884 34.3821C87.7719 34.3821 87.1656 34.3595 86.4695 34.3144C85.7958 34.2692 85.1782 34.2466 84.6168 34.2466C84.4596 34.2466 84.3137 34.2579 84.1789 34.2805C84.0442 34.2805 83.9207 34.2918 83.8084 34.3144V34.4838C83.8084 35.8165 84.2463 36.8329 85.1221 37.5332C86.0203 38.2108 87.1319 38.5496 88.4568 38.5496C89.1305 38.5496 89.748 38.4932 90.3094 38.3802C90.8933 38.2673 91.4323 38.1092 91.9263 37.9059C92.4428 37.7026 92.9368 37.4654 93.4084 37.1944C93.88 36.9233 94.3516 36.6296 94.8231 36.3134V39.5322ZM89.3663 26.7586C88.6702 26.7586 87.9965 26.8489 87.3452 27.0296C86.7165 27.2104 86.1438 27.4814 85.6273 27.8428C85.1333 28.2042 84.7179 28.6673 84.381 29.232C84.0666 29.7741 83.8758 30.4292 83.8084 31.1972L85.6273 31.1294C86.0091 31.1746 86.4695 31.2085 87.0084 31.2311C87.5698 31.2311 88.1087 31.2311 88.6252 31.2311C89.0744 31.2311 89.5235 31.2085 89.9726 31.1633C90.4217 31.0955 90.8147 30.9826 91.1516 30.8245C91.5109 30.6438 91.7916 30.4066 91.9937 30.1129C92.2182 29.8193 92.3305 29.4466 92.3305 28.9948C92.3305 28.1816 92.0273 27.6056 91.421 27.2668C90.8147 26.928 90.1298 26.7586 89.3663 26.7586ZM108.344 26.7925H106.727C106.031 26.7925 105.346 26.9054 104.673 27.1313C104.021 27.3572 103.438 27.696 102.921 28.1478C102.427 28.5769 102.023 29.1078 101.708 29.7402C101.416 30.3727 101.271 31.0955 101.271 31.9087V41.328H98.2052V24.3529H101.237V26.1148C101.461 25.6179 101.787 25.2113 102.214 24.8951C102.64 24.5788 103.112 24.3416 103.628 24.1835C104.145 24.0028 104.661 23.8899 105.178 23.8447C105.717 23.7769 106.188 23.7431 106.593 23.7431H108.311L108.344 26.7925ZM114.167 41.2941H111.236V24.3868H114.167V41.2941ZM112.685 21.8456C112.236 21.8456 111.843 21.6988 111.506 21.4052C111.192 21.0889 111.034 20.7049 111.034 20.2532C111.034 19.8014 111.192 19.4287 111.506 19.1351C111.843 18.8188 112.236 18.6607 112.685 18.6607C113.156 18.6607 113.549 18.8188 113.864 19.1351C114.201 19.4287 114.369 19.8014 114.369 20.2532C114.369 20.7049 114.201 21.0889 113.864 21.4052C113.549 21.6988 113.156 21.8456 112.685 21.8456ZM129.855 26.5892L132.921 27.3007L121.434 39.2951L118.403 38.3802L129.855 26.5892ZM118.436 27.3007V24.3529H132.921V27.3007H118.436ZM118.403 41.328V38.3802H132.954V41.328H118.403ZM140.121 41.2941H137.19V24.3868H140.121V41.2941ZM138.639 21.8456C138.189 21.8456 137.796 21.6988 137.46 21.4052C137.145 21.0889 136.988 20.7049 136.988 20.2532C136.988 19.8014 137.145 19.4287 137.46 19.1351C137.796 18.8188 138.189 18.6607 138.639 18.6607C139.11 18.6607 139.503 18.8188 139.818 19.1351C140.154 19.4287 140.323 19.8014 140.323 20.2532C140.323 20.7049 140.154 21.0889 139.818 21.4052C139.503 21.6988 139.11 21.8456 138.639 21.8456ZM147.388 26.7247C147.545 26.1148 147.837 25.6179 148.264 25.2339C148.713 24.8273 149.185 24.5224 149.679 24.3191C150.195 24.0932 150.7 23.9464 151.194 23.8786C151.688 23.7882 152.07 23.7431 152.34 23.7431C153.62 23.7431 154.72 23.9012 155.641 24.2174C156.584 24.5336 157.347 25.0306 157.931 25.7082C158.538 26.3859 158.987 27.2781 159.279 28.3849C159.571 29.4692 159.716 30.7906 159.716 32.3492V41.328H156.685V32.2475C156.685 31.5473 156.629 30.8809 156.516 30.2485C156.404 29.616 156.191 29.0513 155.876 28.5544C155.562 28.0574 155.135 27.6621 154.596 27.3685C154.058 27.0522 153.35 26.8602 152.474 26.7925C151.868 26.7925 151.262 26.9054 150.655 27.1313C150.049 27.3572 149.51 27.696 149.039 28.1478C148.567 28.5769 148.174 29.1078 147.86 29.7402C147.568 30.3727 147.422 31.0955 147.422 31.9087V41.328H144.356V24.3529H147.422L147.388 26.7247ZM177.811 34.3482C177.811 35.2066 177.811 36.0536 177.811 36.8894C177.811 37.7026 177.8 38.4367 177.777 39.0918C177.777 39.7242 177.777 40.2438 177.777 40.6504C177.777 41.0344 177.777 41.2376 177.777 41.2602H174.678V39.4645C174.027 40.2776 173.241 40.8536 172.32 41.1925C171.4 41.5313 170.456 41.7007 169.491 41.7007C168.705 41.7007 167.919 41.5765 167.133 41.328C166.347 41.1021 165.64 40.752 165.011 40.2776C164.382 39.8033 163.877 39.216 163.495 38.5158C163.113 37.7929 162.922 36.9572 162.922 36.0085C162.922 35.0372 163.08 34.2014 163.394 33.5012C163.731 32.8009 164.18 32.2362 164.741 31.8071C165.325 31.3553 165.999 31.0278 166.762 30.8245C167.548 30.6212 168.402 30.5195 169.322 30.5195C170.131 30.5195 170.984 30.5873 171.882 30.7228C172.803 30.8584 173.735 31.0729 174.678 31.3666V31.2311C174.723 31.0504 174.746 30.8922 174.746 30.7567C174.746 30.6212 174.746 30.4744 174.746 30.3162C174.746 29.7064 174.622 29.1755 174.375 28.7238C174.151 28.272 173.847 27.8993 173.466 27.6056C173.084 27.312 172.646 27.0974 172.152 26.9619C171.68 26.8038 171.186 26.7247 170.67 26.7247C170.176 26.7247 169.693 26.7812 169.221 26.8941C168.75 27.0071 168.323 27.1878 167.941 27.4362C167.56 27.6847 167.245 28.0009 166.998 28.3849C166.751 28.7464 166.616 29.1868 166.594 29.7064H163.495C163.562 28.7125 163.798 27.8428 164.202 27.0974C164.629 26.352 165.157 25.7421 165.786 25.2678C166.437 24.7708 167.167 24.3981 167.975 24.1496C168.783 23.9012 169.614 23.7769 170.468 23.7769C171.456 23.7769 172.388 23.9125 173.263 24.1835C174.139 24.4546 174.903 24.8838 175.554 25.4711C176.228 26.0584 176.755 26.8151 177.137 27.7412C177.541 28.6447 177.755 29.7515 177.777 31.0616V31.2311C178.114 31.1859 178.451 31.1294 178.788 31.0616C179.147 30.9939 179.518 30.9148 179.899 30.8245V34.0094L177.811 34.3482ZM174.712 34.416C174.577 34.416 174.33 34.3708 173.971 34.2805C173.634 34.1901 173.23 34.0998 172.758 34.0094C172.309 33.8965 171.815 33.7948 171.276 33.7045C170.76 33.6141 170.254 33.5689 169.76 33.5689C169.379 33.5689 168.963 33.6141 168.514 33.7045C168.087 33.7722 167.683 33.9078 167.301 34.1111C166.942 34.3144 166.639 34.5741 166.392 34.8904C166.145 35.2066 166.021 35.6019 166.021 36.0762C166.021 36.4602 166.122 36.8104 166.325 37.1266C166.549 37.4428 166.841 37.7252 167.2 37.9736C167.56 38.1995 167.975 38.3802 168.447 38.5158C168.918 38.6513 169.423 38.7191 169.962 38.7191C170.591 38.7191 171.186 38.6174 171.748 38.4141C172.309 38.1882 172.803 37.9172 173.23 37.6009C173.679 37.2847 174.027 36.9459 174.274 36.5845C174.543 36.2231 174.689 35.8955 174.712 35.6019V34.416ZM185.513 26.7247C185.671 26.1148 185.962 25.6179 186.389 25.2339C186.838 24.8273 187.31 24.5224 187.804 24.3191C188.32 24.0932 188.826 23.9464 189.32 23.8786C189.814 23.7882 190.195 23.7431 190.465 23.7431C191.745 23.7431 192.845 23.9012 193.766 24.2174C194.709 24.5336 195.473 25.0306 196.056 25.7082C196.663 26.3859 197.112 27.2781 197.404 28.3849C197.696 29.4692 197.842 30.7906 197.842 32.3492V41.328H194.81V32.2475C194.81 31.5473 194.754 30.8809 194.642 30.2485C194.529 29.616 194.316 29.0513 194.002 28.5544C193.687 28.0574 193.261 27.6621 192.722 27.3685C192.183 27.0522 191.475 26.8602 190.6 26.7925C189.993 26.7925 189.387 26.9054 188.781 27.1313C188.174 27.3572 187.635 27.696 187.164 28.1478C186.692 28.5769 186.299 29.1078 185.985 29.7402C185.693 30.3727 185.547 31.0955 185.547 31.9087V41.328H182.482V24.3529H185.547L185.513 26.7247Z" fill="#4DC9FF"/>
<path d="M63.1578 50.2941H96.1403" stroke="#4DC9FF"/>
<path d="M162.105 50.2941H195.088" stroke="#4DC9FF"/>
<path d="M107.321 54.353H106.549V49.8766C106.549 49.523 106.571 49.0903 106.614 48.5785H106.595C106.521 48.8796 106.455 49.0952 106.396 49.2254L104.129 54.353H103.75L101.488 49.2625C101.423 49.1135 101.357 48.8856 101.289 48.5785H101.271C101.295 48.8453 101.308 49.2812 101.308 49.8861V54.353H100.558V47.6806H101.585L103.621 52.3334C103.778 52.6903 103.88 52.9571 103.926 53.1339H103.954C104.086 52.7679 104.193 52.4947 104.273 52.3151L106.35 47.6806H107.321V54.353ZM114.205 54.353H113.344L112.641 52.4824H109.828L109.167 54.353H108.302L110.846 47.6806H111.651L114.205 54.353ZM112.387 51.7797L111.346 48.9367C111.312 48.8439 111.278 48.695 111.244 48.4903H111.226C111.195 48.6794 111.159 48.8284 111.119 48.9367L110.088 51.7797H112.387ZM120.172 54.353H119.395V51.3099H115.962V54.353H115.185V47.6806H115.962V50.6072H119.395V47.6806H120.172V54.353ZM127.046 54.353H126.185L125.482 52.4824H122.67L122.008 54.353H121.143L123.687 47.6806H124.492L127.046 54.353ZM125.228 51.7797L124.187 48.9367C124.153 48.8439 124.119 48.695 124.085 48.4903H124.067C124.036 48.6794 124 48.8284 123.96 48.9367L122.929 51.7797H125.228ZM127.716 54.083V53.1618C127.821 53.255 127.946 53.3386 128.091 53.4131C128.239 53.4876 128.393 53.5511 128.554 53.6037C128.717 53.6534 128.881 53.6923 129.044 53.7201C129.208 53.748 129.359 53.7621 129.498 53.7621C129.975 53.7621 130.332 53.6736 130.566 53.4967C130.803 53.3167 130.922 53.0594 130.922 52.7245C130.922 52.5445 130.882 52.3878 130.802 52.2544C130.725 52.121 130.617 51.9999 130.478 51.8915C130.339 51.7797 130.174 51.6745 129.983 51.575C129.795 51.4726 129.592 51.3657 129.373 51.2541C129.141 51.1363 128.926 51.0166 128.725 50.8959C128.525 50.7748 128.35 50.6414 128.202 50.4957C128.054 50.3499 127.937 50.1854 127.851 50.0023C127.767 49.8163 127.726 49.5992 127.726 49.3511C127.726 49.0468 127.792 48.7832 127.925 48.5598C128.057 48.3335 128.232 48.1472 128.447 48.0014C128.663 47.8557 128.908 47.7473 129.183 47.676C129.46 47.6044 129.743 47.5687 130.029 47.5687C130.683 47.5687 131.16 47.6478 131.459 47.8063V48.6854C131.067 48.4126 130.565 48.276 129.951 48.276C129.781 48.276 129.612 48.2947 129.442 48.3318C129.272 48.366 129.121 48.4235 128.989 48.504C128.856 48.5848 128.748 48.6886 128.665 48.816C128.582 48.9431 128.54 49.098 128.54 49.2812C128.54 49.4517 128.571 49.5992 128.633 49.7231C128.697 49.8473 128.791 49.9606 128.915 50.063C129.038 50.1653 129.188 50.2645 129.363 50.3605C129.542 50.4568 129.747 50.5624 129.979 50.6771C130.216 50.795 130.441 50.9192 130.654 51.0494C130.867 51.1797 131.053 51.3237 131.214 51.4821C131.374 51.6403 131.5 51.8157 131.593 52.0077C131.688 52.2 131.736 52.4203 131.736 52.6687C131.736 52.9973 131.672 53.2765 131.542 53.5063C131.416 53.7325 131.243 53.9171 131.024 54.0597C130.808 54.2026 130.558 54.305 130.275 54.3671C129.991 54.432 129.692 54.4645 129.377 54.4645C129.272 54.4645 129.143 54.4553 128.989 54.4366C128.834 54.4211 128.677 54.3964 128.517 54.3621C128.356 54.3311 128.204 54.2926 128.059 54.246C127.917 54.1963 127.803 54.1419 127.716 54.083ZM138.194 54.353H137.334L136.631 52.4824H133.818L133.156 54.353H132.292L134.836 47.6806H135.641L138.194 54.353ZM136.376 51.7797L135.335 48.9367C135.301 48.8439 135.267 48.695 135.234 48.4903H135.215C135.184 48.6794 135.149 48.8284 135.109 48.9367L134.077 51.7797H136.376ZM144.522 54.353H143.569L140.155 49.0345C140.069 48.9011 139.998 48.7617 139.942 48.6159H139.915C139.94 48.7585 139.952 49.0641 139.952 49.5325V54.353H139.175V47.6806H140.183L143.505 52.9151C143.643 53.1325 143.733 53.2811 143.773 53.3619H143.791C143.76 53.1695 143.745 52.8424 143.745 52.38V47.6806H144.522V54.353ZM150.184 48.3879H148.269V54.353H147.492V48.3879H145.581V47.6806H150.184V48.3879ZM155.985 54.353H155.06L153.949 52.4824C153.848 52.3087 153.749 52.1615 153.654 52.0405C153.558 51.9163 153.459 51.8157 153.358 51.738C153.259 51.6604 153.151 51.6046 153.034 51.5704C152.92 51.5333 152.79 51.5146 152.645 51.5146H152.007V54.353H151.229V47.6806H153.209C153.499 47.6806 153.766 47.7177 154.01 47.7921C154.256 47.8634 154.469 47.9735 154.648 48.1225C154.83 48.2714 154.972 48.4574 155.074 48.6808C155.175 48.9011 155.226 49.1601 155.226 49.458C155.226 49.6906 155.191 49.9045 155.12 50.1C155.052 50.2924 154.953 50.4646 154.824 50.6167C154.698 50.7685 154.543 50.8987 154.361 51.0074C154.182 51.113 153.98 51.1952 153.755 51.2541V51.2725C153.866 51.3223 153.962 51.3798 154.042 51.4447C154.125 51.5068 154.204 51.5813 154.278 51.6681C154.352 51.755 154.425 51.8541 154.495 51.966C154.569 52.0744 154.651 52.2018 154.741 52.3475L155.985 54.353ZM152.007 48.3879V50.8073H153.061C153.256 50.8073 153.435 50.778 153.598 50.7191C153.765 50.6601 153.908 50.5761 154.028 50.4678C154.148 50.3559 154.242 50.2211 154.311 50.063C154.378 49.9017 154.412 49.7217 154.412 49.523C154.412 49.1665 154.296 48.8887 154.065 48.6904C153.837 48.4885 153.506 48.3879 153.071 48.3879H152.007ZM157.678 54.353H156.901V47.6806H157.678V54.353Z" fill="#4DC9FF"/>
</svg>
