<svg width="82" height="27" viewBox="0 0 82 27" fill="none" xmlns="http://www.w3.org/2000/svg">
<g clip-path="url(#clip0_4_8)">
<path d="M9.92632 2.59894H0V27H9.92632V2.59894Z" fill="#4DC9FF"/>
<path d="M12.0646 20.3334C17.6591 20.3334 22.1943 15.7816 22.1943 10.1667C22.1943 4.55178 17.6591 0 12.0646 0C6.47015 0 1.93494 4.55178 1.93494 10.1667C1.93494 15.7816 6.47015 20.3334 12.0646 20.3334Z" fill="#FFDE51"/>
<path d="M28.5831 8.10518C29.6327 8.16987 30.4107 8.49791 30.9171 9.08931C31.4327 9.68071 31.6905 10.48 31.6905 11.4873C31.6905 11.9031 31.5984 12.2912 31.4143 12.6516C31.2393 13.0027 30.9953 13.3123 30.6823 13.5803C30.3785 13.8482 30.0194 14.0608 29.6051 14.2179C29.2 14.3657 28.7718 14.4396 28.3207 14.4396H26.4148V16.893H25.1995V9.56059C25.043 9.55134 24.8957 9.53748 24.7576 9.519C24.6195 9.50052 24.4814 9.46356 24.3433 9.40811V8.24379C24.5274 8.29 24.7161 8.32234 24.9095 8.34082C25.112 8.3593 25.2962 8.36854 25.4619 8.36854C25.7013 8.36854 25.9315 8.35468 26.1524 8.32696C26.3826 8.29924 26.6128 8.27152 26.843 8.24379C27.0824 8.19759 27.3171 8.16525 27.5473 8.14677C27.7775 8.11904 28.0261 8.10518 28.2931 8.10518H28.5831ZM30.5994 11.418C30.5994 11.1685 30.5764 10.9236 30.5304 10.6833C30.4843 10.4338 30.3877 10.2121 30.2404 10.018C30.093 9.82394 29.8813 9.66223 29.6051 9.53286C29.3289 9.40349 28.9606 9.32495 28.5002 9.29723C28.2424 9.29723 27.934 9.30647 27.5749 9.32495C27.2251 9.34343 26.8384 9.40349 26.4148 9.50514V13.2337H28.3207C28.6245 13.2337 28.9099 13.1922 29.1769 13.109C29.444 13.0258 29.6787 12.9057 29.8813 12.7486C30.093 12.5823 30.2588 12.3882 30.3785 12.1664C30.5074 11.9447 30.581 11.6952 30.5994 11.418ZM38.8775 16.1723C38.5553 16.4033 38.1778 16.6112 37.7451 16.796C37.3124 16.9716 36.8198 17.0594 36.2674 17.0594C35.8162 17.0594 35.3973 16.9947 35.0106 16.8653C34.6331 16.7267 34.3017 16.5326 34.0162 16.2832C33.74 16.0337 33.5145 15.7241 33.3395 15.3545C33.1738 14.9848 33.0817 14.5644 33.0633 14.0931V14.0238C32.916 14.0423 32.7641 14.0562 32.6076 14.0654C32.4603 14.0654 32.3129 14.0931 32.1656 14.1486V12.8872C32.3221 12.841 32.4741 12.8133 32.6214 12.804C32.7687 12.7948 32.9206 12.7809 33.0771 12.7625C33.1047 12.3189 33.206 11.9123 33.381 11.5427C33.5559 11.1731 33.7907 10.8543 34.0853 10.5863C34.3799 10.3183 34.7298 10.1104 35.1349 9.96255C35.54 9.8147 35.9865 9.74078 36.4745 9.74078C36.9993 9.74078 37.4735 9.85628 37.897 10.0873C38.2192 10.2721 38.4862 10.5262 38.698 10.8497C38.9098 11.1731 39.0157 11.5381 39.0157 11.9447C39.0157 12.3697 38.8729 12.7671 38.5875 13.1367C38.2929 13.5248 37.9384 13.7789 37.5241 13.8991C37.119 14.01 36.6771 14.0654 36.1983 14.0654C35.9865 14.0654 35.738 14.0562 35.4525 14.0377C35.1763 14.0192 34.9231 14.01 34.693 14.01C34.6285 14.01 34.5687 14.0146 34.5134 14.0238C34.4582 14.0238 34.4075 14.0284 34.3615 14.0377V14.107C34.3615 14.6522 34.541 15.068 34.9001 15.3545C35.2684 15.6317 35.7241 15.7703 36.2674 15.7703C36.5436 15.7703 36.7968 15.7472 37.0269 15.701C37.2663 15.6548 37.4873 15.5901 37.6898 15.5069C37.9016 15.4238 38.1042 15.3267 38.2975 15.2159C38.4909 15.105 38.6842 14.9848 38.8775 14.8555V16.1723ZM36.6402 10.9467C36.3548 10.9467 36.0786 10.9836 35.8116 11.0576C35.5538 11.1315 35.319 11.2424 35.1073 11.3902C34.9047 11.5381 34.7344 11.7275 34.5963 11.9585C34.4674 12.1803 34.3891 12.4483 34.3615 12.7625L35.1073 12.7347C35.2638 12.7532 35.4525 12.7671 35.6735 12.7763C35.9037 12.7763 36.1246 12.7763 36.3364 12.7763C36.5206 12.7763 36.7047 12.7671 36.8888 12.7486C37.073 12.7209 37.2341 12.6747 37.3722 12.61C37.5195 12.5361 37.6346 12.439 37.7175 12.3189C37.8095 12.1988 37.8556 12.0463 37.8556 11.8615C37.8556 11.5288 37.7313 11.2932 37.4827 11.1546C37.2341 11.016 36.9533 10.9467 36.6402 10.9467ZM44.4212 10.9605H43.7583C43.4729 10.9605 43.192 11.0067 42.9158 11.0992C42.6488 11.1916 42.4094 11.3302 42.1977 11.515C41.9951 11.6906 41.8294 11.9077 41.7005 12.1664C41.5808 12.4252 41.521 12.7209 41.521 13.0535V16.9069H40.2642V9.96255H41.5072V10.6833C41.5992 10.48 41.7327 10.3137 41.9077 10.1843C42.0826 10.055 42.2759 9.95793 42.4877 9.89325C42.6995 9.81932 42.9112 9.77312 43.123 9.75464C43.344 9.72692 43.5373 9.71306 43.703 9.71306H44.4074L44.4212 10.9605ZM46.8085 16.893H45.6069V9.97641H46.8085V16.893ZM46.2009 8.93684C46.0167 8.93684 45.8556 8.87678 45.7175 8.75665C45.5886 8.62728 45.5242 8.47019 45.5242 8.28538C45.5242 8.10056 45.5886 7.94809 45.7175 7.82796C45.8556 7.6986 46.0167 7.63391 46.2009 7.63391C46.3942 7.63391 46.5553 7.6986 46.6842 7.82796C46.8223 7.94809 46.8914 8.10056 46.8914 8.28538C46.8914 8.47019 46.8223 8.62728 46.6842 8.75665C46.5553 8.87678 46.3942 8.93684 46.2009 8.93684ZM53.2408 10.8774L54.4975 11.1685L49.7882 16.0752L48.5452 15.701L53.2408 10.8774ZM48.559 11.1685V9.96255H54.4975V11.1685H48.559ZM48.5452 16.9069V15.701H54.5114V16.9069H48.5452ZM57.4495 16.893H56.248V9.97641H57.4495V16.893ZM56.8419 8.93684C56.6577 8.93684 56.4966 8.87678 56.3585 8.75665C56.2296 8.62728 56.1652 8.47019 56.1652 8.28538C56.1652 8.10056 56.2296 7.94809 56.3585 7.82796C56.4966 7.6986 56.6577 7.63391 56.8419 7.63391C57.0352 7.63391 57.1963 7.6986 57.3252 7.82796C57.4634 7.94809 57.5324 8.10056 57.5324 8.28538C57.5324 8.47019 57.4634 8.62728 57.3252 8.75665C57.1963 8.87678 57.0352 8.93684 56.8419 8.93684ZM60.4292 10.9328C60.4936 10.6833 60.6133 10.48 60.7882 10.3229C60.9724 10.1566 61.1657 10.0319 61.3683 9.94869C61.58 9.85629 61.7872 9.79622 61.9898 9.7685C62.1923 9.73154 62.3488 9.71306 62.4593 9.71306C62.9841 9.71306 63.4353 9.77774 63.8127 9.90711C64.1994 10.0365 64.5125 10.2398 64.7519 10.517C65.0004 10.7942 65.1846 11.1592 65.3043 11.612C65.424 12.0556 65.4838 12.5961 65.4838 13.2337V16.9069H64.2409V13.1922C64.2409 12.9057 64.2178 12.6331 64.1718 12.3744C64.1258 12.1156 64.0383 11.8846 63.9094 11.6813C63.7805 11.478 63.6056 11.3163 63.3846 11.1962C63.1636 11.0668 62.8736 10.9883 62.5146 10.9605C62.266 10.9605 62.0174 11.0067 61.7688 11.0992C61.5202 11.1916 61.2992 11.3302 61.1059 11.515C60.9125 11.6906 60.7514 11.9077 60.6225 12.1664C60.5028 12.4252 60.443 12.7209 60.443 13.0535V16.9069H59.1862V9.96255H60.443L60.4292 10.9328ZM72.9025 14.0515C72.9025 14.4027 72.9025 14.7492 72.9025 15.0911C72.9025 15.4238 72.8979 15.7241 72.8887 15.9921C72.8887 16.2508 72.8887 16.4633 72.8887 16.6297C72.8887 16.7868 72.8887 16.8699 72.8887 16.8792H71.6181V16.1445C71.3511 16.4772 71.0289 16.7128 70.6514 16.8515C70.2739 16.9901 69.8872 17.0594 69.4913 17.0594C69.1691 17.0594 68.8468 17.0085 68.5246 16.9069C68.2023 16.8145 67.9123 16.6713 67.6545 16.4772C67.3967 16.2832 67.1896 16.0429 67.033 15.7564C66.8765 15.4607 66.7983 15.1188 66.7983 14.7307C66.7983 14.3334 66.8627 13.9915 66.9916 13.705C67.1297 13.4186 67.3139 13.1875 67.544 13.012C67.7834 12.8272 68.0596 12.6932 68.3727 12.61C68.6949 12.5268 69.0448 12.4852 69.4223 12.4852C69.7537 12.4852 70.1036 12.513 70.4719 12.5684C70.8493 12.6239 71.2314 12.7116 71.6181 12.8318V12.7763C71.6365 12.7024 71.6458 12.6377 71.6458 12.5823C71.6458 12.5268 71.6458 12.4668 71.6458 12.4021C71.6458 12.1526 71.5951 11.9354 71.4938 11.7506C71.4018 11.5658 71.2775 11.4133 71.121 11.2932C70.9644 11.1731 70.7849 11.0853 70.5823 11.0298C70.389 10.9652 70.1864 10.9328 69.9747 10.9328C69.7721 10.9328 69.5742 10.9559 69.3808 11.0021C69.1875 11.0483 69.0125 11.1223 68.856 11.2239C68.6995 11.3255 68.5706 11.4549 68.4693 11.612C68.3681 11.7599 68.3128 11.94 68.3036 12.1526H67.033C67.0607 11.746 67.1573 11.3902 67.3231 11.0853C67.498 10.7803 67.7144 10.5309 67.9722 10.3368C68.2392 10.1335 68.5384 9.98103 68.8698 9.87939C69.2013 9.77774 69.542 9.72692 69.8918 9.72692C70.2969 9.72692 70.679 9.78236 71.0381 9.89325C71.3972 10.0041 71.7102 10.1797 71.9772 10.42C72.2534 10.6602 72.4698 10.9698 72.6263 11.3486C72.792 11.7183 72.8795 12.1711 72.8887 12.707V12.7763C73.0268 12.7578 73.1649 12.7347 73.303 12.707C73.4503 12.6793 73.6022 12.647 73.7588 12.61V13.9129L72.9025 14.0515ZM71.6319 14.0793C71.5767 14.0793 71.4754 14.0608 71.3281 14.0238C71.19 13.9869 71.0243 13.9499 70.8309 13.9129C70.6468 13.8667 70.4442 13.8251 70.2233 13.7882C70.0115 13.7512 69.8043 13.7327 69.6018 13.7327C69.4453 13.7327 69.275 13.7512 69.0908 13.7882C68.9159 13.8159 68.7501 13.8713 68.5936 13.9545C68.4463 14.0377 68.322 14.1439 68.2207 14.2733C68.1195 14.4027 68.0688 14.5644 68.0688 14.7584C68.0688 14.9155 68.1103 15.0588 68.1931 15.1881C68.2852 15.3175 68.4049 15.433 68.5522 15.5347C68.6995 15.6271 68.8698 15.701 69.0632 15.7564C69.2565 15.8119 69.4637 15.8396 69.6847 15.8396C69.9425 15.8396 70.1864 15.798 70.4166 15.7149C70.6468 15.6224 70.8493 15.5116 71.0243 15.3822C71.2084 15.2528 71.3511 15.1142 71.4524 14.9664C71.5629 14.8185 71.6227 14.6845 71.6319 14.5644V14.0793ZM76.0605 10.9328C76.125 10.6833 76.2447 10.48 76.4196 10.3229C76.6037 10.1566 76.7971 10.0319 76.9996 9.94869C77.2114 9.85629 77.4186 9.79622 77.6211 9.7685C77.8237 9.73154 77.9802 9.71306 78.0907 9.71306C78.6155 9.71306 79.0666 9.77774 79.4441 9.90711C79.8308 10.0365 80.1438 10.2398 80.3832 10.517C80.6318 10.7942 80.8159 11.1592 80.9356 11.612C81.0553 12.0556 81.1152 12.5961 81.1152 13.2337V16.9069H79.8722V13.1922C79.8722 12.9057 79.8492 12.6331 79.8032 12.3744C79.7571 12.1156 79.6697 11.8846 79.5408 11.6813C79.4119 11.478 79.2369 11.3163 79.016 11.1962C78.795 11.0668 78.505 10.9883 78.1459 10.9605C77.8973 10.9605 77.6487 11.0067 77.4001 11.0992C77.1516 11.1916 76.9306 11.3302 76.7372 11.515C76.5439 11.6906 76.3828 11.9077 76.2539 12.1664C76.1342 12.4252 76.0743 12.7209 76.0743 13.0535V16.9069H74.8176V9.96255H76.0743L76.0605 10.9328Z" fill="#4DC9FF"/>
<path d="M25.8948 20.5749H39.4176" stroke="#4DC9FF"/>
<path d="M66.4631 20.5749H79.9859" stroke="#4DC9FF"/>
<path d="M44.0018 22.2353H43.685V20.404C43.685 20.2594 43.6939 20.0823 43.7116 19.873H43.704C43.6736 19.9961 43.6464 20.0844 43.6224 20.1376L42.6931 22.2353H42.5376L41.6101 20.1528C41.5836 20.0919 41.5565 19.9986 41.5285 19.873H41.5211C41.5311 19.9821 41.5362 20.1605 41.5362 20.4079V22.2353H41.2289V19.5057H41.65L42.4845 21.4091C42.5489 21.5551 42.5907 21.6642 42.6096 21.7366H42.621C42.6754 21.5868 42.719 21.4751 42.7519 21.4016L43.6034 19.5057H44.0018V22.2353ZM46.8239 22.2353H46.4711L46.1828 21.47H45.0297L44.7585 22.2353H44.4039L45.447 19.5057H45.777L46.8239 22.2353ZM46.0785 21.1826L45.6517 20.0195C45.6379 19.9816 45.6239 19.9206 45.61 19.8369H45.6025C45.5898 19.9143 45.5753 19.9752 45.5588 20.0195L45.136 21.1826H46.0785ZM49.2705 22.2353H48.9518V20.9904H47.5446V22.2353H47.226V19.5057H47.5446V20.7029H48.9518V19.5057H49.2705V22.2353ZM52.0888 22.2353H51.736L51.4478 21.47H50.2946L50.0235 22.2353H49.6687L50.7118 19.5057H51.0418L52.0888 22.2353ZM51.3434 21.1826L50.9167 20.0195C50.9027 19.9816 50.8889 19.9206 50.875 19.8369H50.8673C50.8547 19.9143 50.8401 19.9752 50.8237 20.0195L50.4008 21.1826H51.3434ZM52.3638 22.1248V21.748C52.4068 21.7861 52.458 21.8203 52.5174 21.8508C52.5781 21.8812 52.6413 21.9072 52.707 21.9287C52.774 21.9491 52.8411 21.965 52.9081 21.9764C52.9752 21.9878 53.037 21.9936 53.094 21.9936C53.2899 21.9936 53.4359 21.9573 53.532 21.885C53.6294 21.8114 53.6781 21.7061 53.6781 21.5691C53.6781 21.4954 53.6617 21.4313 53.6289 21.3768C53.5972 21.3222 53.5529 21.2727 53.4961 21.2283C53.4391 21.1826 53.3715 21.1395 53.2931 21.0988C53.216 21.0569 53.1325 21.0132 53.0428 20.9676C52.948 20.9193 52.8595 20.8704 52.7772 20.821C52.6951 20.7715 52.6236 20.7169 52.5629 20.6573C52.5023 20.5977 52.4543 20.5304 52.4189 20.4554C52.3846 20.3793 52.3676 20.2905 52.3676 20.189C52.3676 20.0646 52.3948 19.9567 52.4491 19.8653C52.5034 19.7728 52.575 19.6965 52.6634 19.6369C52.7519 19.5773 52.8525 19.533 52.965 19.5038C53.0787 19.4745 53.1946 19.4599 53.3121 19.4599C53.5801 19.4599 53.7755 19.4922 53.8982 19.5571V19.9167C53.7376 19.8051 53.5315 19.7492 53.2799 19.7492C53.2102 19.7492 53.1407 19.7569 53.0713 19.7721C53.0016 19.7861 52.9398 19.8096 52.8854 19.8425C52.831 19.8756 52.7867 19.918 52.7526 19.9702C52.7185 20.0221 52.7014 20.0855 52.7014 20.1605C52.7014 20.2302 52.7141 20.2905 52.7394 20.3412C52.7658 20.3921 52.8044 20.4384 52.855 20.4803C52.9055 20.5221 52.967 20.5627 53.039 20.602C53.1123 20.6414 53.1964 20.6846 53.2912 20.7315C53.3886 20.7797 53.4808 20.8305 53.5682 20.8838C53.6553 20.9371 53.7319 20.996 53.7976 21.0608C53.8634 21.1255 53.9151 21.1973 53.9531 21.2758C53.9923 21.3545 54.012 21.4446 54.012 21.5463C54.012 21.6807 53.9853 21.7949 53.9323 21.8889C53.8805 21.9814 53.8096 22.057 53.7198 22.1153C53.6313 22.1738 53.5289 22.2156 53.4126 22.241C53.2963 22.2676 53.1737 22.2809 53.0447 22.2809C53.0016 22.2809 52.9486 22.2771 52.8854 22.2695C52.8221 22.2631 52.7577 22.253 52.6919 22.239C52.6262 22.2263 52.5636 22.2106 52.5042 22.1915C52.4459 22.1712 52.3992 22.1489 52.3638 22.1248ZM56.6596 22.2353H56.3068L56.0185 21.47H54.8653L54.5942 22.2353H54.2395L55.2827 19.5057H55.6127L56.6596 22.2353ZM55.9142 21.1826L55.4875 20.0195C55.4736 19.9816 55.4596 19.9206 55.4458 19.8369H55.4382C55.4255 19.9143 55.411 19.9752 55.3946 20.0195L54.9716 21.1826H55.9142ZM59.2541 22.2353H58.8633L57.4637 20.0595C57.4283 20.005 57.3993 19.9479 57.3764 19.8883H57.365C57.3753 19.9466 57.3803 20.0717 57.3803 20.2633V22.2353H57.0616V19.5057H57.4751L58.8369 21.647C58.8937 21.736 58.9304 21.7968 58.9468 21.8298H58.9544C58.9417 21.7511 58.9354 21.6173 58.9354 21.4282V19.5057H59.2541V22.2353ZM61.5755 19.795H60.7903V22.2353H60.4717V19.795H59.6884V19.5057H61.5755V19.795ZM63.9538 22.2353H63.5745L63.1193 21.47C63.0776 21.399 63.0371 21.3388 62.998 21.2893C62.9587 21.2384 62.9183 21.1973 62.8766 21.1655C62.8362 21.1338 62.7919 21.1109 62.7438 21.0969C62.6971 21.0818 62.644 21.0741 62.5846 21.0741H62.3227V22.2353H62.0041V19.5057H62.8159C62.9347 19.5057 63.044 19.5208 63.144 19.5513C63.2452 19.5805 63.3323 19.6255 63.4057 19.6864C63.4804 19.7474 63.5385 19.8235 63.5802 19.9149C63.6219 20.005 63.6428 20.1109 63.6428 20.2328C63.6428 20.3279 63.6283 20.4154 63.5992 20.4954C63.5713 20.5741 63.5309 20.6446 63.4778 20.7068C63.426 20.7689 63.3627 20.8222 63.2882 20.8666C63.2148 20.9098 63.1319 20.9435 63.0397 20.9676V20.9751C63.0852 20.9954 63.1245 21.019 63.1573 21.0455C63.1914 21.0709 63.2236 21.1014 63.2539 21.1369C63.2843 21.1725 63.3141 21.213 63.3431 21.2588C63.3735 21.3031 63.407 21.3552 63.4437 21.4149L63.9538 22.2353ZM62.3227 19.795V20.7848H62.7552C62.8349 20.7848 62.9082 20.7728 62.9751 20.7487C63.0435 20.7246 63.1023 20.6902 63.1515 20.6459C63.2009 20.6001 63.2394 20.545 63.2673 20.4803C63.2951 20.4143 63.309 20.3406 63.309 20.2594C63.309 20.1135 63.2616 19.9999 63.1668 19.9188C63.0733 19.8362 62.9373 19.795 62.7589 19.795H62.3227ZM64.6479 22.2353H64.3293V19.5057H64.6479V22.2353Z" fill="#4DC9FF"/>
</g>
<defs>
<clipPath id="clip0_4_8">
<rect width="82" height="27" fill="white"/>
</clipPath>
</defs>
</svg>
