<svg width="154" height="51" viewBox="0 0 154 51" fill="none" xmlns="http://www.w3.org/2000/svg">
<path d="M18.6421 4.90912H0V51H18.6421V4.90912Z" fill="#4DC9FF"/>
<path d="M22.6578 38.4075C33.1646 38.4075 41.6819 29.8097 41.6819 19.2037C41.6819 8.59783 33.1646 0 22.6578 0C12.1511 0 3.63379 8.59783 3.63379 19.2037C3.63379 29.8097 12.1511 38.4075 22.6578 38.4075Z" fill="#FFDE51"/>
<path d="M53.6803 15.3098C55.6515 15.432 57.1127 16.0516 58.0636 17.1687C59.032 18.2858 59.5162 19.7956 59.5162 21.6982C59.5162 22.4836 59.3432 23.2167 58.9974 23.8974C58.6689 24.5607 58.2106 25.1455 57.6227 25.6516C57.0522 26.1578 56.3778 26.5592 55.5996 26.856C54.8389 27.1352 54.0349 27.2749 53.1875 27.2749H49.6083V31.9091H47.3258V18.0589C47.0319 18.0415 46.7552 18.0153 46.4959 17.9803C46.2364 17.9454 45.9771 17.8756 45.7178 17.7709V15.5716C46.0636 15.6589 46.418 15.72 46.7811 15.7549C47.1615 15.7898 47.5074 15.8073 47.8186 15.8073C48.2682 15.8073 48.7004 15.7811 49.1155 15.7287C49.5478 15.6764 49.98 15.624 50.4123 15.5716C50.8619 15.4844 51.3028 15.4232 51.7351 15.3884C52.1674 15.336 52.6342 15.3098 53.1356 15.3098H53.6803ZM57.4671 21.5673C57.4671 21.096 57.4239 20.6334 57.3375 20.1796C57.251 19.7083 57.0694 19.2894 56.7928 18.9229C56.5161 18.5563 56.1184 18.2509 55.5996 18.0065C55.081 17.7622 54.3893 17.6138 53.5247 17.5614C53.0406 17.5614 52.4614 17.5789 51.787 17.6138C51.1299 17.6487 50.4037 17.7622 49.6083 17.9541V24.9971H53.1875C53.7582 24.9971 54.2942 24.9185 54.7956 24.7614C55.2971 24.6043 55.738 24.3774 56.1184 24.0807C56.5161 23.7665 56.8273 23.4 57.0522 22.981C57.2942 22.5622 57.4326 22.0909 57.4671 21.5673ZM73.0138 30.5476C72.4087 30.984 71.6997 31.3767 70.887 31.7258C70.0743 32.0574 69.1493 32.2233 68.1118 32.2233C67.2645 32.2233 66.4777 32.1011 65.7516 31.8567C65.0426 31.5949 64.4201 31.2284 63.8841 30.7571C63.3653 30.2858 62.9417 29.7011 62.6132 29.0029C62.302 28.3047 62.129 27.5105 62.0944 26.6204V26.4895C61.8178 26.5243 61.5325 26.5505 61.2385 26.568C60.9619 26.568 60.6852 26.6204 60.4085 26.7251V24.3425C60.7025 24.2553 60.9878 24.2029 61.2645 24.1854C61.5411 24.168 61.8264 24.1418 62.1204 24.1069C62.1722 23.269 62.3624 22.5011 62.691 21.8029C63.0195 21.1047 63.4604 20.5025 64.0137 19.9963C64.5671 19.4902 65.2241 19.0975 65.9849 18.8181C66.7458 18.5389 67.5844 18.3992 68.5008 18.3992C69.4864 18.3992 70.377 18.6175 71.1724 19.0538C71.7775 19.4029 72.2789 19.8829 72.6766 20.4938C73.0743 21.1047 73.2732 21.7941 73.2732 22.5622C73.2732 23.3651 73.0052 24.1156 72.4692 24.8138C71.9159 25.5469 71.2501 26.0269 70.472 26.2538C69.7112 26.4633 68.8812 26.568 67.9821 26.568C67.5844 26.568 67.1175 26.5505 66.5815 26.5157C66.0628 26.4807 65.5872 26.4633 65.155 26.4633C65.0339 26.4633 64.9216 26.472 64.8178 26.4895C64.7141 26.4895 64.619 26.4982 64.5325 26.5157V26.6466C64.5325 27.6764 64.8697 28.4618 65.544 29.0029C66.2357 29.5265 67.0916 29.7883 68.1118 29.7883C68.6305 29.7883 69.106 29.7447 69.5383 29.6574C69.9879 29.5702 70.4029 29.448 70.7833 29.2909C71.181 29.1338 71.5614 28.9505 71.9245 28.7411C72.2876 28.5316 72.6508 28.3047 73.0138 28.0603V30.5476ZM68.8121 20.6771C68.2761 20.6771 67.7573 20.7469 67.2558 20.8865C66.7717 21.0262 66.3307 21.2356 65.933 21.5149C65.5527 21.7941 65.2328 22.152 64.9734 22.5883C64.7313 23.0072 64.5844 23.5135 64.5325 24.1069L65.933 24.0545C66.227 24.0894 66.5815 24.1156 66.9965 24.1331C67.4288 24.1331 67.8437 24.1331 68.2414 24.1331C68.5873 24.1331 68.9331 24.1156 69.2789 24.0807C69.6247 24.0283 69.9273 23.9411 70.1868 23.8189C70.4634 23.6793 70.6796 23.496 70.8352 23.269C71.008 23.0422 71.0945 22.7542 71.0945 22.4051C71.0945 21.7767 70.861 21.3316 70.3942 21.0698C69.9273 20.808 69.4 20.6771 68.8121 20.6771ZM83.4249 20.7033H82.1798C81.6439 20.7033 81.1164 20.7905 80.5982 20.9651C80.0962 21.1396 79.6473 21.4014 79.2492 21.7506C78.8688 22.0821 78.5577 22.4924 78.3152 22.981C78.0903 23.4698 77.9787 24.0283 77.9787 24.6567V31.9353H75.618V18.8181H77.9525V20.1796C78.125 19.7956 78.376 19.4814 78.7048 19.2371C79.0328 18.9927 79.3963 18.8094 79.7936 18.6872C80.1917 18.5476 80.589 18.4604 80.9871 18.4254C81.4021 18.373 81.7648 18.3469 82.0766 18.3469H83.3995L83.4249 20.7033ZM87.9086 31.9091H85.6517V18.8443H87.9086V31.9091ZM86.7675 16.8807C86.4217 16.8807 86.1191 16.7672 85.8596 16.5404C85.6179 16.296 85.4962 15.9992 85.4962 15.6502C85.4962 15.3011 85.6179 15.0131 85.8596 14.7862C86.1191 14.5418 86.4217 14.4196 86.7675 14.4196C87.1301 14.4196 87.4328 14.5418 87.6753 14.7862C87.9348 15.0131 88.0642 15.3011 88.0642 15.6502C88.0642 15.9992 87.9348 16.296 87.6753 16.5404C87.4328 16.7672 87.1301 16.8807 86.7675 16.8807ZM99.9884 20.5462L102.349 21.096L93.5042 30.3644L91.1703 29.6574L99.9884 20.5462ZM91.1957 21.096V18.8181H102.349V21.096H91.1957ZM91.1703 31.9353V29.6574H102.375V31.9353H91.1703ZM107.893 31.9091H105.636V18.8443H107.893V31.9091ZM106.752 16.8807C106.406 16.8807 106.103 16.7672 105.844 16.5404C105.602 16.296 105.481 15.9992 105.481 15.6502C105.481 15.3011 105.602 15.0131 105.844 14.7862C106.103 14.5418 106.406 14.4196 106.752 14.4196C107.115 14.4196 107.417 14.5418 107.66 14.7862C107.919 15.0131 108.049 15.3011 108.049 15.6502C108.049 15.9992 107.919 16.296 107.66 16.5404C107.417 16.7672 107.115 16.8807 106.752 16.8807ZM113.489 20.6509C113.61 20.1796 113.835 19.7956 114.163 19.4989C114.509 19.1847 114.872 18.9491 115.253 18.792C115.65 18.6175 116.039 18.504 116.419 18.4516C116.8 18.3818 117.094 18.3469 117.302 18.3469C118.287 18.3469 119.134 18.4691 119.844 18.7134C120.57 18.9578 121.157 19.3418 121.607 19.8654C122.074 20.3891 122.42 21.0785 122.645 21.9338C122.87 22.7716 122.981 23.7927 122.981 24.9971V31.9353H120.647V24.9185C120.647 24.3774 120.604 23.8625 120.517 23.3738C120.431 22.8851 120.267 22.4487 120.025 22.0647C119.783 21.6807 119.454 21.3752 119.039 21.1484C118.625 20.904 118.08 20.7556 117.405 20.7033C116.938 20.7033 116.472 20.7905 116.004 20.9651C115.538 21.1396 115.123 21.4014 114.76 21.7506C114.397 22.0821 114.094 22.4924 113.852 22.981C113.627 23.4698 113.515 24.0283 113.515 24.6567V31.9353H111.154V18.8181H113.515L113.489 20.6509ZM136.915 26.5418C136.915 27.2051 136.915 27.8596 136.915 28.5054C136.915 29.1338 136.906 29.7011 136.888 30.2073C136.888 30.696 136.888 31.0975 136.888 31.4117C136.888 31.7084 136.888 31.8654 136.888 31.8829H134.502V30.4953C134.001 31.1236 133.396 31.5687 132.686 31.8306C131.978 32.0924 131.251 32.2233 130.508 32.2233C129.903 32.2233 129.298 32.1273 128.692 31.9353C128.087 31.7607 127.543 31.4902 127.058 31.1236C126.574 30.7571 126.185 30.3033 125.891 29.7622C125.597 29.2036 125.45 28.5578 125.45 27.8247C125.45 27.0742 125.572 26.4283 125.813 25.8873C126.073 25.3461 126.419 24.9098 126.851 24.5782C127.3 24.2291 127.819 23.976 128.407 23.8189C129.012 23.6618 129.67 23.5832 130.378 23.5832C131.001 23.5832 131.658 23.6356 132.349 23.7403C133.058 23.8451 133.776 24.0109 134.502 24.2378V24.1331C134.537 23.9935 134.554 23.8712 134.554 23.7665C134.554 23.6618 134.554 23.5484 134.554 23.4261C134.554 22.9549 134.459 22.5447 134.269 22.1956C134.096 21.8465 133.862 21.5585 133.569 21.3316C133.275 21.1047 132.937 20.9389 132.557 20.8342C132.194 20.712 131.813 20.6509 131.416 20.6509C131.036 20.6509 130.664 20.6945 130.3 20.7818C129.938 20.8691 129.609 21.0087 129.315 21.2007C129.021 21.3927 128.779 21.637 128.588 21.9338C128.398 22.2131 128.294 22.5534 128.277 22.9549H125.891C125.943 22.1869 126.124 21.5149 126.436 20.9389C126.764 20.3629 127.171 19.8916 127.655 19.5251C128.157 19.1411 128.719 18.8531 129.341 18.661C129.963 18.4691 130.603 18.373 131.26 18.373C132.021 18.373 132.739 18.4778 133.413 18.6872C134.087 18.8967 134.675 19.2284 135.177 19.6822C135.696 20.136 136.101 20.7207 136.396 21.4364C136.707 22.1345 136.871 22.9898 136.888 24.0021V24.1331C137.148 24.0982 137.407 24.0545 137.667 24.0021C137.943 23.9498 138.229 23.8887 138.522 23.8189V26.28L136.915 26.5418ZM134.528 26.5942C134.424 26.5942 134.234 26.5592 133.958 26.4895C133.698 26.4196 133.387 26.3498 133.024 26.28C132.678 26.1927 132.298 26.1141 131.883 26.0444C131.485 25.9745 131.096 25.9396 130.715 25.9396C130.422 25.9396 130.102 25.9745 129.756 26.0444C129.427 26.0967 129.116 26.2015 128.822 26.3586C128.545 26.5157 128.312 26.7163 128.122 26.9607C127.932 27.2051 127.836 27.5105 127.836 27.877C127.836 28.1738 127.914 28.4444 128.07 28.6887C128.243 28.9331 128.468 29.1513 128.744 29.3432C129.021 29.5178 129.341 29.6574 129.704 29.7622C130.067 29.8669 130.456 29.9193 130.871 29.9193C131.355 29.9193 131.813 29.8407 132.246 29.6836C132.678 29.509 133.058 29.2996 133.387 29.0552C133.733 28.8109 134.001 28.5491 134.191 28.2698C134.398 27.9906 134.511 27.7374 134.528 27.5105V26.5942ZM142.845 20.6509C142.967 20.1796 143.191 19.7956 143.52 19.4989C143.865 19.1847 144.229 18.9491 144.609 18.792C145.006 18.6175 145.396 18.504 145.776 18.4516C146.157 18.3818 146.45 18.3469 146.658 18.3469C147.644 18.3469 148.491 18.4691 149.2 18.7134C149.926 18.9578 150.514 19.3418 150.963 19.8654C151.431 20.3891 151.776 21.0785 152.001 21.9338C152.226 22.7716 152.338 23.7927 152.338 24.9971V31.9353H150.004V24.9185C150.004 24.3774 149.961 23.8625 149.874 23.3738C149.787 22.8851 149.623 22.4487 149.382 22.0647C149.139 21.6807 148.811 21.3752 148.396 21.1484C147.981 20.904 147.436 20.7556 146.762 20.7033C146.295 20.7033 145.828 20.7905 145.361 20.9651C144.894 21.1396 144.479 21.4014 144.116 21.7506C143.753 22.0821 143.45 22.4924 143.208 22.981C142.984 23.4698 142.871 24.0283 142.871 24.6567V31.9353H140.511V18.8181H142.871L142.845 20.6509Z" fill="#4DC9FF"/>
<path d="M48.6316 38.8636H74.0281" stroke="#4DC9FF"/>
<path d="M124.821 38.8636H150.218" stroke="#4DC9FF"/>
<path d="M82.6372 42H82.0428V38.541C82.0428 38.2678 82.0597 37.9334 82.0928 37.5379H82.0782C82.0212 37.7706 81.9704 37.9372 81.925 38.0378L80.1794 42H79.8875L78.1458 38.0665C78.0957 37.9513 78.0449 37.7752 77.9926 37.5379H77.9787C77.9972 37.7441 78.0072 38.0809 78.0072 38.5483V42H77.4297V36.8441H78.2205L79.7882 40.4394C79.9091 40.7152 79.9876 40.9214 80.0231 41.058H80.0446C80.1463 40.7752 80.2286 40.5641 80.2902 40.4253L81.8895 36.8441H82.6372V42ZM87.9379 42H87.2749L86.7336 40.5546H84.5676L84.0586 42H83.3926L85.3514 36.8441H85.9713L87.9379 42ZM86.538 40.0116L85.7364 37.8147C85.7103 37.743 85.6841 37.628 85.6579 37.4698H85.644C85.6202 37.6159 85.5925 37.731 85.5617 37.8147L84.7678 40.0116H86.538ZM92.5325 42H91.9342V39.6486H89.2908V42H88.6925V36.8441H89.2908V39.1056H91.9342V36.8441H92.5325V42ZM97.8254 42H97.1625L96.6212 40.5546H94.4559L93.9462 42H93.2801L95.239 36.8441H95.8589L97.8254 42ZM96.4256 40.0116L95.624 37.8147C95.5978 37.743 95.5717 37.628 95.5455 37.4698H95.5316C95.5078 37.6159 95.48 37.731 95.4492 37.8147L94.6554 40.0116H96.4256ZM98.3414 41.7914V41.0796C98.4222 41.1516 98.5185 41.2162 98.6301 41.2738C98.7441 41.3313 98.8626 41.3804 98.9866 41.421C99.1121 41.4594 99.2384 41.4895 99.3639 41.511C99.4902 41.5325 99.6065 41.5434 99.7135 41.5434C100.081 41.5434 100.356 41.4751 100.536 41.3384C100.718 41.1993 100.81 41.0004 100.81 40.7417C100.81 40.6026 100.779 40.4815 100.718 40.3784C100.658 40.2753 100.575 40.1817 100.468 40.098C100.361 40.0116 100.234 39.9303 100.087 39.8534C99.9422 39.7743 99.7859 39.6917 99.6172 39.6054C99.4386 39.5144 99.2731 39.4219 99.1183 39.3286C98.9643 39.2351 98.8295 39.132 98.7156 39.0194C98.6016 38.9067 98.5115 38.7796 98.4453 38.6381C98.3806 38.4944 98.349 38.3267 98.349 38.1349C98.349 37.8998 98.3999 37.6961 98.5023 37.5235C98.6039 37.3486 98.7387 37.2047 98.9042 37.092C99.0705 36.9794 99.2592 36.8956 99.4709 36.8405C99.6842 36.7852 99.9021 36.7576 100.122 36.7576C100.626 36.7576 100.993 36.8188 101.223 36.9412V37.6205C100.922 37.4097 100.535 37.3042 100.062 37.3042C99.9314 37.3042 99.8013 37.3186 99.6704 37.3473C99.5395 37.3737 99.4232 37.4182 99.3216 37.4804C99.2191 37.5428 99.136 37.623 99.0721 37.7215C99.0082 37.8197 98.9758 37.9394 98.9758 38.0809C98.9758 38.2127 98.9997 38.3267 99.0474 38.4224C99.0967 38.5184 99.1691 38.6059 99.2646 38.685C99.3593 38.7641 99.4748 38.8407 99.6095 38.9149C99.7474 38.9893 99.9052 39.0709 100.084 39.1596C100.266 39.2507 100.44 39.3467 100.604 39.4473C100.768 39.5479 100.911 39.6592 101.035 39.7816C101.158 39.9039 101.255 40.0394 101.327 40.1878C101.4 40.3364 101.437 40.5066 101.437 40.6985C101.437 40.9525 101.387 41.1682 101.287 41.3458C101.19 41.5206 101.057 41.6632 100.889 41.7734C100.722 41.8838 100.53 41.963 100.312 42.0109C100.093 42.0611 99.8629 42.0862 99.6203 42.0862C99.5395 42.0862 99.4401 42.0791 99.3216 42.0646C99.2022 42.0527 99.0813 42.0336 98.9581 42.0071C98.8341 41.9831 98.7171 41.9534 98.6055 41.9174C98.4961 41.879 98.4083 41.8369 98.3414 41.7914ZM106.409 42H105.747L105.206 40.5546H103.04L102.53 42H101.865L103.824 36.8441H104.444L106.409 42ZM105.01 40.0116L104.208 37.8147C104.182 37.743 104.156 37.628 104.13 37.4698H104.116C104.092 37.6159 104.065 37.731 104.034 37.8147L103.239 40.0116H105.01ZM111.282 42H110.548L107.919 37.8903C107.853 37.7872 107.798 37.6795 107.755 37.5668H107.735C107.754 37.677 107.763 37.9132 107.763 38.2751V42H107.165V36.8441H107.941L110.499 40.8889C110.605 41.0569 110.674 41.1718 110.705 41.2342H110.719C110.695 41.0855 110.684 40.8328 110.684 40.4755V36.8441H111.282V42ZM115.642 37.3906H114.167V42H113.569V37.3906H112.097V36.8441H115.642V37.3906ZM120.108 42H119.396L118.541 40.5546C118.463 40.4204 118.387 40.3066 118.314 40.2131C118.24 40.1171 118.163 40.0394 118.086 39.9794C118.009 39.9194 117.926 39.8763 117.836 39.8499C117.748 39.8212 117.648 39.8067 117.537 39.8067H117.045V42H116.446V36.8441H117.971C118.194 36.8441 118.4 36.8728 118.588 36.9303C118.777 36.9854 118.941 37.0704 119.079 37.1856C119.219 37.3006 119.328 37.4444 119.407 37.617C119.485 37.7872 119.524 37.9873 119.524 38.2175C119.524 38.3973 119.497 38.5626 119.442 38.7136C119.39 38.8623 119.314 38.9954 119.215 39.1129C119.117 39.2302 118.998 39.3308 118.858 39.4148C118.72 39.4964 118.565 39.5599 118.391 39.6054V39.6197C118.477 39.6581 118.551 39.7026 118.612 39.7527C118.676 39.8007 118.737 39.8583 118.794 39.9253C118.851 39.9925 118.907 40.0691 118.961 40.1555C119.018 40.2393 119.081 40.3378 119.151 40.4503L120.108 42ZM117.045 37.3906V39.2602H117.857C118.007 39.2602 118.145 39.2375 118.27 39.192C118.399 39.1464 118.509 39.0815 118.602 38.9978C118.694 38.9114 118.766 38.8072 118.82 38.685C118.871 38.5604 118.897 38.4213 118.897 38.2678C118.897 37.9923 118.808 37.7776 118.63 37.6244C118.455 37.4684 118.2 37.3906 117.865 37.3906H117.045ZM121.412 42H120.814V36.8441H121.412V42Z" fill="#4DC9FF"/>
</svg>
